<?xml version="1.0" encoding="UTF-8"?>
<svg xmlns="http://www.w3.org/2000/svg" viewBox="0 0 40 40">
  <defs>
    <style>
      .cls-1 {
        fill: #fff;
      }

      .cls-2, .cls-3, .cls-4 {
        fill: none;
        stroke: #000;
        stroke-miterlimit: 10;
      }

      .cls-2, .cls-4 {
        stroke-width: 1.3px;
      }

      .cls-5 {
        fill: #fecc0f;
      }

      .cls-3, .cls-4 {
        stroke-linecap: round;
      }
    </style>
  </defs>
  <g id="_레이어_6" data-name="레이어 6">
    <ellipse class="cls-1" cx="19.89" cy="20.73" rx="14.13" ry="14.7"/>
  </g>
  <g id="_레이어_3" data-name="레이어 3">
    <path class="cls-5" d="m6.25,24.54c.24.9.55,1.77.94,2.6h25.65c.32-.68.6-1.38.82-2.11v-1.19H6.25v.7Z"/>
    <path class="cls-5" d="m30.55,28.9H8.91v1.08c.8,1.03,1.74,1.93,2.78,2.7h16.39c.91-.68,1.74-1.46,2.47-2.33v-1.45Z"/>
    <path d="m32.8,26.69H6.97c.47,1.11,1.08,2.15,1.79,3.09h22.24c.71-.95,1.32-1.98,1.79-3.09Z"/>
    <path d="m6.23,24.45h27.31c.26-1.04.42-2.12.45-3.24H5.78c.03,1.12.19,2.2.45,3.24Z"/>
    <path d="m28.94,32.01H10.84c1.74,1.51,3.82,2.59,6.12,3.09h5.86c2.29-.5,4.38-1.58,6.12-3.09Z"/>
  </g>
  <g id="_몸통" data-name="몸통">
    <ellipse class="cls-2" cx="19.89" cy="20.73" rx="14.13" ry="14.7"/>
  </g>
  <g id="_침_얼굴" data-name="침, 얼굴">
    <circle cx="16.37" cy="12.29" r="1.18"/>
    <path class="cls-3" d="m22.26,12.72s.34-1.05,1.29-1.05"/>
    <path class="cls-3" d="m24.7,12.72s-.34-1.05-1.29-1.05"/>
    <path class="cls-4" d="m17.97,15.04s.54,1.26,1.99,1.16,1.95-1.16,1.95-1.16"/>
    <path d="m19.73,34.23l-3.54.88,1.86.97c.38.2.94.95,1.13,1.33l.55,1.12.52-1.13c.2-.38.78-1.12,1.16-1.32l1.86-.97-3.54-.88Z"/>
  </g>
  <g id="_더듬이" data-name="더듬이">
    <path class="cls-4" d="m18.47,5.89s-.52-3.16-3.39-3.49-2.29,2.66-2.29,2.66"/>
    <path class="cls-4" d="m21.29,5.89s1.45-3.56,3.52-3.45c1.94.1,2.48,2.08,2.48,2.08"/>
  </g>
</svg>