<?xml version="1.0" standalone="no"?>
<!DOCTYPE svg PUBLIC "-//W3C//DTD SVG 20010904//EN"
 "http://www.w3.org/TR/2001/REC-SVG-20010904/DTD/svg10.dtd">
<svg version="1.0" xmlns="http://www.w3.org/2000/svg"
 width="517.000000pt" height="173.000000pt" viewBox="0 0 517.000000 173.000000"
 preserveAspectRatio="xMidYMid meet">

<g transform="translate(0.000000,173.000000) scale(0.100000,-0.100000)"
fill="#000000" stroke="none">
<path d="M3693 1546 l-28 -24 -3 -553 c-2 -405 1 -561 9 -582 25 -61 117 -73
159 -20 20 25 20 37 20 585 l0 560 -29 29 c-38 37 -88 39 -128 5z"/>
<path d="M4998 1554 c-17 -9 -31 -28 -38 -52 -8 -25 -10 -207 -8 -574 l3 -536
24 -26 c43 -46 121 -47 167 -1 l24 24 0 561 0 562 -29 29 c-24 23 -38 29 -73
29 -24 -1 -55 -7 -70 -16z"/>
<path d="M3393 1526 l-28 -24 -3 -181 -3 -181 -65 0 c-84 0 -104 -18 -104 -94
0 -71 19 -86 107 -86 l63 0 0 -276 0 -276 29 -29 c22 -21 39 -29 66 -29 27 0
44 8 66 29 l29 29 0 542 0 542 -29 29 c-38 37 -88 39 -128 5z"/>
<path d="M156 1519 c-20 -16 -26 -29 -26 -58 0 -62 23 -75 149 -81 l106 -5 5
-83 c5 -76 7 -86 33 -108 59 -50 138 -19 153 60 10 59 -1 197 -19 232 -28 53
-66 64 -230 64 -131 0 -147 -2 -171 -21z"/>
<path d="M635 1515 c-27 -26 -31 -49 -16 -88 13 -34 58 -47 162 -47 l89 0 0
-65 c0 -74 18 -128 48 -144 38 -20 82 -13 113 18 29 29 29 31 29 143 0 94 -3
118 -20 145 -33 55 -61 63 -230 63 -147 0 -152 -1 -175 -25z"/>
<path d="M1812 1505 c-38 -17 -52 -48 -52 -118 0 -66 -34 -141 -83 -184 -20
-18 -99 -69 -174 -113 -76 -45 -144 -89 -150 -98 -27 -34 -5 -119 36 -142 11
-5 32 -10 47 -10 42 0 325 174 383 235 l47 50 45 -45 c42 -44 220 -160 329
-215 59 -30 88 -28 126 10 30 30 34 104 7 126 -10 8 -78 51 -152 95 -74 43
-153 97 -176 120 -48 46 -75 113 -75 186 0 62 -13 86 -55 104 -42 17 -61 17
-103 -1z"/>
<path d="M4332 1509 c-107 -21 -225 -104 -279 -197 -79 -134 -83 -305 -11
-446 31 -61 117 -145 179 -177 80 -40 172 -55 246 -41 182 37 313 173 345 361
40 232 -115 459 -341 501 -61 11 -78 11 -139 -1z m180 -227 c143 -88 138 -322
-8 -408 -142 -83 -314 29 -314 206 0 60 26 129 63 168 65 70 177 84 259 34z"/>
<path d="M2694 1491 c-72 -33 -74 -42 -74 -418 0 -408 6 -435 108 -485 43 -21
62 -23 239 -26 l192 -4 26 26 c32 32 34 92 4 130 l-20 26 -155 0 c-88 0 -164
4 -175 10 -17 10 -19 22 -19 110 l0 100 125 0 c120 0 127 1 150 25 29 29 34
88 9 123 -14 21 -22 22 -150 22 l-134 0 0 94 0 94 161 4 c155 3 161 4 180 27
25 31 25 101 0 132 -19 24 -22 24 -223 27 -181 2 -207 0 -244 -17z"/>
<path d="M20 1100 c-12 -12 -20 -33 -20 -55 0 -22 8 -43 20 -55 19 -19 33 -20
255 -20 l235 0 0 -36 c0 -54 44 -94 105 -94 25 0 55 5 66 10 24 13 49 61 49
95 l0 25 228 0 c264 0 272 2 272 74 0 81 38 76 -613 76 -564 0 -577 0 -597
-20z"/>
<path d="M172 787 c-28 -30 -29 -80 -2 -107 19 -19 33 -20 359 -20 369 0 366
1 359 -57 l-3 -28 -341 -5 c-373 -5 -364 -4 -385 -67 -16 -49 -7 -189 15 -231
21 -40 77 -78 136 -91 70 -16 712 -14 734 2 25 19 33 90 12 122 l-16 25 -328
0 c-280 0 -331 2 -350 16 -25 18 -29 59 -6 68 9 3 155 6 325 6 340 0 343 1
375 61 21 41 20 231 -2 269 -36 60 -34 60 -466 60 l-395 0 -21 -23z"/>
<path d="M1256 599 c-22 -18 -26 -28 -26 -74 0 -46 4 -56 26 -74 26 -21 35
-21 615 -21 576 0 589 0 609 20 15 15 20 33 20 73 0 28 -4 57 -8 63 -21 32
-51 34 -630 34 -571 0 -580 0 -606 -21z"/>
</g>
</svg>
