<?xml version="1.0" encoding="UTF-8"?>
<svg id="_레이어_2" data-name="레이어 2" xmlns="http://www.w3.org/2000/svg" xmlns:xlink="http://www.w3.org/1999/xlink" viewBox="0 0 511.48 167.31">
  <defs>
    <style>
      .cls-1 {
        fill: url(#linear-gradient-2);
      }

      .cls-2 {
        fill: #fff;
      }

      .cls-3 {
        fill: #040000;
      }

      .cls-4 {
        clip-path: url(#clippath);
      }

      .cls-5 {
        fill: none;
      }

      .cls-6 {
        fill: url(#linear-gradient-3);
      }

      .cls-7 {
        fill: url(#linear-gradient);
      }

      .cls-8 {
        fill: url(#linear-gradient-4);
      }
    </style>
    <clipPath id="clippath">
      <path class="cls-5" d="m110.84,73.21l-23.06-13.32s-42.02-24.26-44.49-25.69c-2.47-1.43-4.93-.56-4.93,2.42v104.65c0,2.23,1.76,3.2,3.9,1.96,2.15-1.24,45.51-26.28,45.51-26.28l23.06-13.31s19.57-11.3,22.17-12.8c2.6-1.5,2.35-3.56.16-4.75-2.19-1.18-22.32-12.89-22.32-12.89Z"/>
    </clipPath>
    <linearGradient id="linear-gradient" x1="66.93" y1="31.77" x2="66.93" y2="145.07" gradientUnits="userSpaceOnUse">
      <stop offset="0" stop-color="#0778b1"/>
      <stop offset=".41" stop-color="#459fb6"/>
      <stop offset=".81" stop-color="#7dc1bb"/>
      <stop offset="1" stop-color="#93cfbd"/>
    </linearGradient>
    <linearGradient id="linear-gradient-2" x1="38.36" y1="59.89" x2="110.84" y2="59.89" gradientUnits="userSpaceOnUse">
      <stop offset="0" stop-color="#54bcaa"/>
      <stop offset="1" stop-color="#e4eb98"/>
    </linearGradient>
    <linearGradient id="linear-gradient-3" x1="74.6" y1="88.42" x2="74.6" y2="145.49" gradientUnits="userSpaceOnUse">
      <stop offset="0" stop-color="#e7392f"/>
      <stop offset=".21" stop-color="#d13a46"/>
      <stop offset=".74" stop-color="#9f3c7d"/>
      <stop offset="1" stop-color="#8c3e93"/>
    </linearGradient>
    <linearGradient id="linear-gradient-4" x1="116.35" y1="73.21" x2="116.35" y2="103.64" gradientUnits="userSpaceOnUse">
      <stop offset="0" stop-color="#f08975"/>
      <stop offset=".64" stop-color="#f7b86f"/>
      <stop offset="1" stop-color="#fbce6d"/>
    </linearGradient>
  </defs>
  <g id="Layer_1" data-name="Layer 1">
    <g>
      <path class="cls-2" d="m511.48,144.7c0,12.49-10.12,22.61-22.61,22.61H22.61c-12.49,0-22.61-10.12-22.61-22.61V22.61C0,10.12,10.12,0,22.61,0h466.26c12.48,0,22.61,10.12,22.61,22.61v122.09Z"/>
      <g id="PLAY">
        <g class="cls-4">
          <polygon class="cls-7" points="38.36 31.77 38.36 88.42 38.36 145.07 95.5 88.42 38.36 31.77"/>
          <polygon class="cls-1" points="110.84 73.21 87.78 59.89 38.36 31.36 38.36 31.77 95.5 88.42 110.84 73.21"/>
          <polygon class="cls-6" points="38.36 145.07 38.36 145.49 87.78 116.95 110.84 103.64 95.5 88.42 38.36 145.07"/>
          <polygon class="cls-8" points="110.84 73.21 95.5 88.42 110.84 103.64 137.2 88.42 110.84 73.21"/>
        </g>
      </g>
      <g>
        <path d="m398.06,110.57c-2.15,0-4.1-.4-5.88-1.19-1.77-.79-3.26-2.01-4.47-3.65h-.36c.24,1.92.36,3.75.36,5.47v13.56h-4.99v-47.74h4.06l.69,4.51h.24c1.28-1.8,2.78-3.11,4.48-3.91,1.7-.8,3.66-1.2,5.86-1.2,4.37,0,7.74,1.49,10.12,4.48,2.37,2.99,3.56,7.18,3.56,12.57s-1.21,9.62-3.62,12.61c-2.42,2.99-5.77,4.49-10.06,4.49Zm-.72-29.91c-3.37,0-5.8.93-7.3,2.8-1.5,1.86-2.28,4.83-2.32,8.9v1.11c0,4.63.77,7.94,2.32,9.94,1.54,1.99,4.02,2.99,7.42,2.99,2.85,0,5.08-1.15,6.69-3.46,1.61-2.3,2.42-5.48,2.42-9.53s-.81-7.26-2.42-9.46c-1.61-2.2-3.89-3.29-6.81-3.29Z"/>
        <path d="m423.29,109.97h-4.99v-46.78h4.99v46.78Z"/>
        <path d="m451.99,109.97l-.99-4.69h-.24c-1.64,2.07-3.28,3.46-4.92,4.19-1.63.73-3.67,1.1-6.12,1.1-3.27,0-5.83-.84-7.68-2.53-1.85-1.68-2.78-4.08-2.78-7.18,0-6.65,5.32-10.14,15.96-10.46l5.59-.18v-2.04c0-2.59-.56-4.5-1.67-5.73-1.11-1.23-2.89-1.85-5.34-1.85-2.75,0-5.85.84-9.32,2.53l-1.53-3.82c1.62-.88,3.4-1.57,5.34-2.07,1.93-.5,3.87-.75,5.82-.75,3.93,0,6.84.87,8.73,2.62,1.89,1.74,2.84,4.54,2.84,8.39v22.49h-3.7Zm-11.27-3.52c3.11,0,5.54-.85,7.32-2.55,1.77-1.7,2.66-4.09,2.66-7.16v-2.98l-4.99.21c-3.97.14-6.83.76-8.58,1.85-1.75,1.09-2.63,2.79-2.63,5.1,0,1.8.54,3.18,1.64,4.12,1.09.94,2.62,1.41,4.59,1.41Z"/>
        <path d="m458.58,77.02h5.35l7.22,18.79c1.58,4.29,2.57,7.39,2.95,9.29h.24c.26-1.02.81-2.77,1.64-5.25.83-2.48,3.55-10.09,8.16-22.83h5.35l-14.16,37.52c-1.4,3.71-3.04,6.34-4.92,7.89-1.87,1.55-4.17,2.33-6.9,2.33-1.52,0-3.03-.17-4.51-.51v-4c1.1.24,2.34.36,3.7.36,3.43,0,5.87-1.92,7.34-5.77l1.83-4.69-13.29-33.13Z"/>
      </g>
      <g>
        <path d="m305.61,80.08c1.58,1.31,4.89,4.07,4.89,9.31s-2.89,7.51-5.79,9.79c-.9.89-1.93,1.86-1.93,3.38s1.03,2.34,1.79,2.96l2.48,1.93c3.03,2.55,5.79,4.9,5.79,9.65,0,6.48-6.27,13.02-18.12,13.02-10,0-14.82-4.75-14.82-9.86,0-2.48,1.24-5.99,5.31-8.41,4.27-2.62,10.06-2.96,13.16-3.17-.97-1.24-2.07-2.55-2.07-4.68,0-1.17.35-1.86.69-2.69-.76.07-1.52.14-2.21.14-7.3,0-11.44-5.44-11.44-10.82,0-3.17,1.45-6.69,4.41-9.24,3.93-3.24,8.62-3.79,12.34-3.79h14.19l-4.41,2.48h-4.27Zm-4.89,30.6c-.55-.07-.9-.07-1.58-.07-.62,0-4.35.14-7.24,1.11-1.52.55-5.93,2.2-5.93,7.1s4.76,8.41,12.13,8.41c6.61,0,10.13-3.18,10.13-7.45,0-3.52-2.28-5.37-7.51-9.1Zm2-13.1c1.58-1.59,1.72-3.79,1.72-5.03,0-4.96-2.96-12.68-8.68-12.68-1.79,0-3.72.9-4.83,2.28-1.17,1.45-1.52,3.31-1.52,5.1,0,4.62,2.69,12.27,8.62,12.27,1.72,0,3.58-.83,4.69-1.93Z"/>
        <path d="m262.22,109.58c-10.94,0-16.79-8.53-16.79-16.24,0-9.01,7.36-16.72,17.82-16.72s16.44,7.91,16.44,16.24-6.26,16.72-17.48,16.72Zm8.6-5.57c1.65-2.2,2.07-4.95,2.07-7.64,0-6.06-2.89-17.61-11.42-17.61-2.27,0-4.54.9-6.19,2.34-2.68,2.41-3.17,5.43-3.17,8.4,0,6.81,3.37,18.02,11.7,18.02,2.68,0,5.44-1.31,7.01-3.5Z"/>
        <path d="m224.92,109.58c-10.94,0-16.79-8.53-16.79-16.24,0-9.01,7.36-16.72,17.82-16.72s16.44,7.91,16.44,16.24-6.26,16.72-17.48,16.72Zm8.6-5.57c1.65-2.2,2.07-4.95,2.07-7.64,0-6.06-2.89-17.61-11.42-17.61-2.27,0-4.54.9-6.19,2.34-2.68,2.41-3.17,5.43-3.17,8.4,0,6.81,3.37,18.02,11.7,18.02,2.68,0,5.43-1.31,7.02-3.5Z"/>
        <path d="m202.88,108.5l-9.89,2.28c-4.01.62-7.61,1.17-11.41,1.17-19.1,0-26.36-14.04-26.36-25.04,0-13.42,10.31-25.87,27.95-25.87,3.74,0,7.33.55,10.58,1.45,5.19,1.45,7.61,3.25,9.13,4.29l-5.74,5.47-2.42.55,1.73-2.77c-2.35-2.28-6.64-6.5-14.8-6.5-10.93,0-19.16,8.3-19.16,20.41,0,13,9.41,25.25,24.49,25.25,4.43,0,6.71-.9,8.79-1.73v-11.14l-10.44.55,5.53-2.98h14.67l-1.8,1.73c-.49.42-.55.56-.69,1.11-.07.62-.14,2.63-.14,3.32v8.44Z"/>
        <path d="m327.47,106.51c-2.28-.21-2.76-.62-2.76-3.32v-39.15c.01-.15.02-.3.04-.45.28-2.42.97-2.83,3.12-4.08h-9.9l-5.19,2.49h5.29v.03-.02s0,40.42,0,40.42v2.29c0,1.38-.27,1.59-1.87,3.66h12.25l2.56-1.52c-1.17-.14-2.35-.21-3.53-.35Z"/>
        <path d="m355.62,107.15c-.75.41-1.51.9-2.26,1.24-2.27,1.03-4.61,1.31-6.67,1.31-2.19,0-5.63-.14-9.14-2.68-4.87-3.44-7-9.35-7-14.5,0-10.65,8.66-15.87,15.73-15.87,2.47,0,5.02.62,7.08,1.92,3.43,2.26,4.33,5.22,4.8,6.8l-16.14,6.53-5.29.41c1.71,8.72,7.62,13.8,14.15,13.8,3.5,0,6.05-1.24,8.38-2.4l-3.64,3.44Zm-6.45-20.48c1.3-.48,1.99-.89,1.99-1.85,0-2.75-3.09-5.91-6.8-5.91-2.75,0-7.9,2.13-7.9,9.55,0,1.17.14,2.4.21,3.64l12.5-5.43Z"/>
        <g>
          <path d="m362.26,77.11v4.53h-.55v-4.53h-1.5v-.47h3.55v.47h-1.5Z"/>
          <path d="m368.44,81.65v-4.58h-.03l-1.4,4.58h-.43l-1.41-4.58h-.02v4.58h-.5v-5h.86l1.27,4.04h.02l1.25-4.04h.87v5h-.5Z"/>
        </g>
      </g>
      <g>
        <path class="cls-3" d="m168.95,47.58h-3.44c0-.47-.33-1.81-.98-4.02h-4.96c-.67,2.17-1.01,3.51-1.01,4.02h-3.23c0-.28.84-2.57,2.51-6.87,1.67-4.3,2.51-6.67,2.51-7.11h4.06c0,.41.76,2.74,2.27,7.01,1.51,4.26,2.27,6.59,2.27,6.98Zm-4.96-6.07c-1.22-3.7-1.84-5.69-1.84-5.99h-.17c0,.28-.63,2.28-1.9,5.99h3.91Z"/>
        <path class="cls-3" d="m182.81,47.58h-2.65c0-.29-.98-1.84-2.95-4.65-2.06-2.96-3.24-4.98-3.52-6.07h-.17c.18,1.57.27,2.99.27,4.25,0,1.77.05,3.92.15,6.47h-2.64c.11-2.22.16-4.66.16-7.32s-.05-4.84-.16-6.67h3.19c0,.38.88,1.89,2.65,4.54,1.88,2.81,2.96,4.72,3.24,5.73h.16c-.17-1.6-.26-3.03-.26-4.3,0-1.94-.05-3.93-.15-5.97h2.69c-.1,1.78-.15,4-.15,6.67s.05,5.13.15,7.32Z"/>
        <path class="cls-3" d="m198.38,40.1c0,2.03-.65,3.81-1.96,5.33-1.3,1.52-3.13,2.28-5.48,2.28-1.06,0-2.52-.04-4.38-.13.09-2.16.14-4.6.14-7.32s-.05-4.83-.14-6.67h1.88c.31,0,.77-.01,1.37-.03.61-.02,1.01-.03,1.19-.03,2.58,0,4.46.64,5.62,1.93,1.16,1.29,1.75,2.84,1.75,4.64Zm-2.93.46c0-1.38-.4-2.53-1.2-3.48-.8-.94-2.03-1.41-3.67-1.41-.31,0-.73.03-1.27.1.07,1.43.11,2.93.11,4.49,0,1.71.04,3.41.11,5.09.47.09.93.14,1.4.14,1.54,0,2.68-.48,3.42-1.43.74-.96,1.11-2.12,1.11-3.5Z"/>
        <path class="cls-3" d="m212.73,47.58h-3.18c-.83-2.54-1.47-4.1-1.91-4.69-.44-.59-1.16-.89-2.15-.89-.42,0-.81,0-1.19.01,0,1.84.03,3.7.1,5.58h-2.99c.09-2.16.14-4.6.14-7.32s-.05-4.83-.14-6.67h1.86c.21,0,.66-.01,1.35-.03.68-.02,1.32-.03,1.9-.03,3.29,0,4.93,1.12,4.93,3.37,0,1.78-.94,3.03-2.81,3.73v.16c.72.2,1.36.76,1.9,1.69.54.93,1.28,2.63,2.2,5.1Zm-4.03-9.88c0-1.42-.92-2.14-2.75-2.14-.67,0-1.27.05-1.78.15.08,1.11.12,2.56.12,4.34.39.01.73.02,1,.02,2.28,0,3.42-.79,3.42-2.37Z"/>
        <path class="cls-3" d="m228.13,40.32c0,2.2-.67,4.02-2.02,5.47-1.35,1.45-3.01,2.17-5,2.17s-3.47-.66-4.75-1.99c-1.27-1.33-1.91-3.02-1.91-5.06,0-2.2.67-4.02,2.02-5.47,1.35-1.45,3.01-2.17,5-2.17s3.47.66,4.75,1.99c1.27,1.33,1.91,3.02,1.91,5.07Zm-2.96.31c0-1.5-.38-2.71-1.15-3.64-.77-.93-1.71-1.4-2.84-1.4-1.05,0-1.93.47-2.66,1.41-.73.94-1.1,2.12-1.1,3.56s.38,2.7,1.15,3.64c.77.93,1.71,1.4,2.83,1.4,1.05,0,1.93-.47,2.66-1.41.73-.94,1.1-2.12,1.1-3.55Z"/>
        <path class="cls-3" d="m234.2,47.58h-3.04c.09-2.22.14-4.66.14-7.32s-.05-4.84-.14-6.67h3.04c-.09,1.8-.14,4.03-.14,6.67s.05,5.14.14,7.32Z"/>
        <path class="cls-3" d="m249.77,40.1c0,2.03-.65,3.81-1.96,5.33-1.3,1.52-3.13,2.28-5.48,2.28-1.06,0-2.52-.04-4.38-.13.09-2.16.14-4.6.14-7.32s-.05-4.83-.14-6.67h1.88c.31,0,.77-.01,1.38-.03.61-.02,1.01-.03,1.19-.03,2.58,0,4.46.64,5.62,1.93,1.16,1.29,1.75,2.84,1.75,4.64Zm-2.93.46c0-1.38-.4-2.53-1.2-3.48-.8-.94-2.03-1.41-3.67-1.41-.31,0-.73.03-1.27.1.07,1.43.11,2.93.11,4.49,0,1.71.04,3.41.11,5.09.47.09.93.14,1.4.14,1.54,0,2.68-.48,3.42-1.43.74-.96,1.11-2.12,1.11-3.5Z"/>
        <path class="cls-3" d="m270.43,47.58h-3.44c0-.47-.33-1.81-.98-4.02h-4.96c-.67,2.17-1.01,3.51-1.01,4.02h-3.23c0-.28.84-2.57,2.51-6.87,1.67-4.3,2.51-6.67,2.51-7.11h4.06c0,.41.76,2.74,2.27,7.01,1.51,4.26,2.27,6.59,2.27,6.98Zm-4.96-6.07c-1.22-3.7-1.84-5.69-1.84-5.99h-.17c0,.28-.63,2.28-1.9,5.99h3.91Z"/>
        <path class="cls-3" d="m282.96,37.25c0,1.71-.64,2.98-1.91,3.79-1.27.82-2.83,1.22-4.68,1.22-.34,0-.58,0-.72-.02,0,1.35.04,3.12.12,5.33h-3.02c.09-2.07.14-4.51.14-7.32,0-2.58-.05-4.8-.14-6.67h1.87c.26,0,.77-.01,1.53-.03.75-.02,1.4-.03,1.96-.03,1.36,0,2.51.31,3.45.92.94.62,1.41,1.55,1.41,2.8Zm-2.77.59c0-1.53-1.02-2.3-3.05-2.3-.51,0-1.05.05-1.61.16.08,1.35.12,2.89.12,4.6.18.01.39.02.62.02,2.61,0,3.92-.83,3.92-2.48Z"/>
        <path class="cls-3" d="m295.84,37.25c0,1.71-.64,2.98-1.91,3.79-1.27.82-2.83,1.22-4.68,1.22-.34,0-.58,0-.72-.02,0,1.35.04,3.12.12,5.33h-3.02c.09-2.07.14-4.51.14-7.32,0-2.58-.05-4.8-.14-6.67h1.87c.26,0,.77-.01,1.53-.03.75-.02,1.4-.03,1.96-.03,1.36,0,2.51.31,3.45.92.94.62,1.41,1.55,1.41,2.8Zm-2.77.59c0-1.53-1.02-2.3-3.05-2.3-.51,0-1.05.05-1.61.16.08,1.35.12,2.89.12,4.6.18.01.39.02.62.02,2.61,0,3.92-.83,3.92-2.48Z"/>
        <path class="cls-3" d="m316.91,40.32c0,2.2-.67,4.02-2.02,5.47-1.35,1.45-3.01,2.17-5,2.17s-3.47-.66-4.75-1.99c-1.27-1.33-1.91-3.02-1.91-5.06,0-2.2.67-4.02,2.02-5.47,1.35-1.45,3.01-2.17,5-2.17s3.47.66,4.75,1.99c1.27,1.33,1.91,3.02,1.91,5.07Zm-2.96.31c0-1.5-.38-2.71-1.15-3.64-.77-.93-1.71-1.4-2.84-1.4-1.05,0-1.93.47-2.66,1.41-.73.94-1.1,2.12-1.1,3.56s.38,2.7,1.16,3.64c.77.93,1.71,1.4,2.83,1.4,1.05,0,1.93-.47,2.66-1.41.73-.94,1.1-2.12,1.1-3.55Z"/>
        <path class="cls-3" d="m331.47,47.58h-2.65c0-.29-.98-1.84-2.95-4.65-2.06-2.96-3.24-4.98-3.52-6.07h-.17c.18,1.57.27,2.99.27,4.25,0,1.77.05,3.92.15,6.47h-2.64c.11-2.22.16-4.66.16-7.32s-.05-4.84-.16-6.67h3.19c0,.38.88,1.89,2.65,4.54,1.88,2.81,2.96,4.72,3.24,5.73h.16c-.17-1.6-.26-3.03-.26-4.3,0-1.94-.05-3.93-.15-5.97h2.69c-.1,1.78-.15,4-.15,6.67s.05,5.13.15,7.32Z"/>
      </g>
    </g>
  </g>
</svg>