<?xml version="1.0" encoding="UTF-8"?>
<svg id="_레이어_2" data-name="레이어 2" xmlns="http://www.w3.org/2000/svg" viewBox="0 0 521.71 170.66">
  <defs>
    <style>
      .cls-1 {
        fill: #fff;
      }

      .cls-2 {
        fill: #040000;
      }
    </style>
  </defs>
  <g id="Layer_1" data-name="Layer 1">
    <g>
      <path class="cls-1" d="m521.71,147.59c0,12.74-10.32,23.06-23.06,23.06H23.06c-12.74,0-23.06-10.33-23.06-23.06V23.06C0,10.33,10.33,0,23.06,0h475.59c12.73,0,23.06,10.33,23.06,23.06v124.53Z"/>
      <g>
        <path d="m136.05,112.8c-2.76,6.12-4.08,8.85-7.64,14.26-4.96,7.55-11.96,16.96-20.62,17.04-7.7.07-9.68-5.01-20.13-4.95-10.45.06-12.63,5.04-20.33,4.97-8.66-.08-15.29-8.57-20.25-16.13-13.88-21.12-15.32-45.91-6.77-59.08,6.08-9.37,15.67-14.85,24.69-14.85s14.96,5.04,22.55,5.04,11.86-5.04,22.47-5.04c8.03,0,16.53,4.37,22.59,11.93-19.85,10.88-16.63,39.24,3.43,46.82Z"/>
        <path d="m101.97,45.62c3.86-4.95,6.79-11.95,5.72-19.09-6.3.43-13.67,4.44-17.98,9.67-3.91,4.75-7.13,11.78-5.87,18.62,6.88.21,14-3.9,18.13-9.2Z"/>
      </g>
      <g>
        <g>
          <path class="cls-2" d="m178.32,68.59l-19.88,58.5h9.1l5.93-17.96h19.24l6.1,17.96h9.35l-19.96-58.5h-9.9Zm4.72,9.62c.67,2.61,1.4,5.32,2.33,8.25l5.36,15.51h-15.24l5.28-15.61c.8-2.53,1.57-5.27,2.28-8.15Z"/>
          <path class="cls-2" d="m233.89,83.76c-6.03,0-10.86,2.33-14.07,6.75l-.35-5.82h-8.1l.05.74c.24,3.62.34,7.62.34,13.34v45.09h8.85v-21.04c2.75,3.29,7.13,5.2,12.1,5.2s9.94-2.03,13.41-5.7c3.88-4.1,5.92-9.99,5.92-17.03,0-6.22-1.78-11.6-5.14-15.55-3.3-3.87-7.91-6-13.01-6Zm-2.21,7.33c7.89,0,11.42,7.31,11.42,14.55,0,9.34-4.51,15.15-11.76,15.15-4.95,0-9.23-3.37-10.43-8.21-.21-.75-.31-1.74-.31-2.87v-7.12c0-.64.14-1.43.28-2.18.04-.24.09-.48.13-.72,1.32-5.06,5.7-8.6,10.67-8.6Z"/>
          <path class="cls-2" d="m279.47,83.76c-6.03,0-10.86,2.33-14.07,6.75l-.35-5.82h-8.09l.04.74c.24,3.63.34,7.62.34,13.34v45.09h8.85v-21.04c2.75,3.29,7.13,5.2,12.1,5.2s9.94-2.03,13.42-5.7c3.87-4.1,5.92-9.99,5.92-17.03,0-6.22-1.78-11.6-5.15-15.55-3.29-3.87-7.91-6-13.01-6Zm-2.2,7.33c7.89,0,11.42,7.31,11.42,14.55,0,9.34-4.51,15.15-11.76,15.15-4.95,0-9.24-3.37-10.43-8.21-.21-.75-.31-1.74-.31-2.87v-7.12c0-.65.14-1.43.28-2.19.04-.24.09-.48.13-.71,1.32-5.06,5.7-8.6,10.67-8.6Z"/>
          <path class="cls-2" d="m336.58,93.38c-8.26-3.2-10.91-5.71-10.91-10.36,0-3.91,3.11-7.86,10.06-7.86,5.73,0,9.4,1.99,10.39,2.61l.75.46,2.5-7.39-.49-.29c-1.48-.87-5.71-2.89-12.89-2.89-11.29,0-19.17,6.66-19.17,16.2,0,7.69,4.94,13.07,15.54,16.92,7.51,2.81,10.31,5.68,10.31,10.61,0,5.58-4.31,9.04-11.25,9.04-4.52,0-9.17-1.32-12.76-3.62l-.77-.49-2.38,7.56.44.29c3.34,2.23,9.63,3.85,14.96,3.85,15.21,0,20.61-9.28,20.61-17.22s-4.32-13.24-14.93-17.43Z"/>
          <path class="cls-2" d="m367.44,74.61l-8.68,2.73v7.35h-6.36v7.07h6.36v21.67c0,5.24,1,8.91,3.06,11.23,1.98,2.17,5.02,3.36,8.56,3.36,3.35,0,5.72-.66,6.84-1.06l.5-.18-.42-7.09-.85.26c-1.12.34-2.27.48-4.12.48-3.43,0-4.89-2.17-4.89-7.26v-21.41h10.68v-7.07h-10.68v-10.08Z"/>
          <path class="cls-2" d="m400.05,83.76c-12.38,0-21.03,9.24-21.03,22.47s8.37,21.8,20.36,21.8h.08c10.13,0,21.03-7.06,21.03-22.56,0-6.3-1.95-11.71-5.64-15.66-3.71-3.96-8.83-6.05-14.8-6.05Zm-.26,6.99c7.96,0,11.59,7.76,11.59,14.98,0,8.87-4.95,15.31-11.76,15.31h-.09c-6.71,0-11.59-6.33-11.59-15.06,0-7.58,3.66-15.23,11.84-15.23Z"/>
          <path class="cls-2" d="m447.6,84.17l-.53-.13c-.78-.19-1.42-.28-2.2-.28-4.63,0-8.79,2.73-11.1,7.13l-.26-6.19h-7.94l.05.74c.24,3.5.33,7.44.33,12.75l-.08,28.92h8.85v-22.56c0-1.23.08-2.39.24-3.43,1-5.42,4.65-8.92,9.31-8.92.91,0,1.62.07,2.37.15l.95.1v-8.26Z"/>
          <path class="cls-2" d="m467.5,83.68c-11.78,0-20.01,9.41-20.01,22.9s8.19,21.37,20.86,21.37c6.66,0,11.3-1.46,14.01-2.69l.53-.24-1.7-6.6-.74.3c-2.41.98-5.62,1.98-11.09,1.98-3.85,0-12.71-1.27-13.26-12.83l28.57.09.12-.57c.18-.9.27-2.11.27-3.69,0-9.23-4.6-20.02-17.56-20.02Zm-.59,6.73c2.7,0,4.88.83,6.5,2.48,2.55,2.59,2.99,6.41,3.05,8.24h-20.19c.82-5.11,4.02-10.72,10.64-10.72Z"/>
        </g>
        <g>
          <path class="cls-2" d="m158.44,28.63c2.47-.33,5.34-.57,8.49-.57,5.71,0,9.77,1.15,12.46,3.41,2.78,2.26,4.38,5.5,4.38,9.98s-1.6,8.21-4.43,10.76c-2.92,2.59-7.67,3.99-13.65,3.99-2.88,0-5.2-.08-7.26-.33v-27.24Zm4.02,24.53c1,.16,2.46.16,4.02.16,8.49.04,13.1-4.27,13.1-11.75.05-6.61-4.06-10.68-12.46-10.68-2.05,0-3.61.17-4.66.37v21.9Z"/>
          <path class="cls-2" d="m198.01,56.4c-5.94,0-10.59-3.94-10.59-10.23,0-6.66,4.88-10.56,10.95-10.56s10.64,4.15,10.64,10.19c0,7.39-5.71,10.6-10.95,10.6h-.05Zm.14-2.71c3.83,0,6.71-3.25,6.71-7.76,0-3.37-1.87-7.6-6.62-7.6s-6.76,3.94-6.76,7.72c0,4.35,2.74,7.64,6.62,7.64h.05Z"/>
          <path class="cls-2" d="m215.37,36.07l2.97,10.07c.59,2.22,1.19,4.31,1.6,6.37h.14c.5-2.01,1.23-4.15,1.96-6.33l3.61-10.11h3.38l3.42,9.94c.82,2.34,1.46,4.48,1.96,6.49h.14c.37-2.01.96-4.11,1.69-6.45l3.15-9.98h3.97l-7.12,19.88h-3.65l-3.38-9.49c-.78-2.26-1.42-4.23-1.96-6.57h-.09c-.55,2.38-1.23,4.48-2.01,6.61l-3.56,9.45h-3.65l-6.67-19.88h4.11Z"/>
          <path class="cls-2" d="m247.37,41.45c0-2.1-.05-3.74-.18-5.38h3.56l.23,3.25h.09c1.1-1.85,3.65-3.7,7.3-3.7,3.06,0,7.81,1.64,7.81,8.46v11.87h-4.01v-11.46c0-3.2-1.33-5.91-5.11-5.91-2.6,0-4.66,1.68-5.39,3.7-.18.45-.27,1.11-.27,1.68v12h-4.02v-14.5Z"/>
          <path class="cls-2" d="m272.7,26.78h4.02v29.17h-4.02v-29.17Z"/>
          <path class="cls-2" d="m292.38,56.4c-5.93,0-10.59-3.94-10.59-10.23,0-6.66,4.88-10.56,10.96-10.56s10.63,4.15,10.63,10.19c0,7.39-5.71,10.6-10.96,10.6h-.04Zm.13-2.71c3.83,0,6.71-3.25,6.71-7.76,0-3.37-1.87-7.6-6.62-7.6s-6.76,3.94-6.76,7.72c0,4.35,2.74,7.64,6.62,7.64h.04Z"/>
          <path class="cls-2" d="m324.02,51.18c0,1.72.09,3.41.32,4.76h-3.61l-.37-2.5h-.13c-1.19,1.56-3.61,2.96-6.76,2.96-4.47,0-6.76-2.83-6.76-5.71,0-4.81,4.75-7.44,13.28-7.39v-.41c0-1.64-.5-4.64-5.02-4.6-2.1,0-4.25.53-5.8,1.48l-.91-2.42c1.83-1.03,4.52-1.73,7.3-1.73,6.8,0,8.44,4.15,8.44,8.13v7.44Zm-3.92-5.38c-4.38-.08-9.36.62-9.36,4.48,0,2.38,1.73,3.45,3.74,3.45,2.92,0,4.79-1.64,5.43-3.33.14-.37.18-.78.18-1.15v-3.45Z"/>
          <path class="cls-2" d="m349.53,26.78v24.03c0,1.77.05,3.78.18,5.14h-3.61l-.18-3.45h-.09c-1.23,2.22-3.88,3.9-7.49,3.9-5.34,0-9.5-4.07-9.5-10.11-.05-6.66,4.57-10.68,9.91-10.68,3.43,0,5.71,1.44,6.67,3h.09v-11.83h4.02Zm-4.02,17.38c0-.49-.04-1.07-.18-1.56-.59-2.26-2.78-4.15-5.8-4.15-4.15,0-6.62,3.29-6.62,7.64,0,4.07,2.24,7.39,6.53,7.39,2.69,0,5.16-1.64,5.89-4.31.14-.49.18-.99.18-1.56v-3.45Z"/>
          <path class="cls-2" d="m374.87,56.4c-5.93,0-10.59-3.94-10.59-10.23,0-6.66,4.89-10.56,10.96-10.56s10.64,4.15,10.64,10.19c0,7.39-5.71,10.6-10.95,10.6h-.05Zm.14-2.71c3.83,0,6.71-3.25,6.71-7.76,0-3.37-1.87-7.6-6.62-7.6s-6.76,3.94-6.76,7.72c0,4.35,2.74,7.64,6.62,7.64h.05Z"/>
          <path class="cls-2" d="m390.94,41.45c0-2.1-.05-3.74-.18-5.38h3.56l.23,3.25h.09c1.1-1.85,3.65-3.7,7.3-3.7,3.06,0,7.81,1.64,7.81,8.46v11.87h-4.02v-11.46c0-3.2-1.32-5.91-5.11-5.91-2.6,0-4.66,1.68-5.39,3.7-.18.45-.27,1.11-.27,1.68v12h-4.02v-14.5Z"/>
          <path class="cls-2" d="m430.79,31.3v4.76h5.75v2.75h-5.75v10.72c0,2.46.78,3.86,3.01,3.86,1.09,0,1.73-.08,2.33-.25l.18,2.75c-.78.25-2.01.49-3.56.49-1.87,0-3.38-.58-4.34-1.52-1.1-1.11-1.55-2.88-1.55-5.22v-10.85h-3.42v-2.75h3.42v-3.66l3.93-1.11Z"/>
          <path class="cls-2" d="m441.06,26.78h4.02v12.41h.09c.64-1.03,1.64-1.97,2.88-2.55,1.19-.66,2.6-1.03,4.11-1.03,2.96,0,7.71,1.64,7.71,8.5v11.83h-4.02v-11.42c0-3.25-1.32-5.92-5.11-5.92-2.6,0-4.61,1.64-5.39,3.62-.23.49-.28,1.03-.28,1.73v12h-4.02v-29.17Z"/>
          <path class="cls-2" d="m468.68,46.62c.09,4.89,3.52,6.9,7.53,6.9,2.87,0,4.66-.45,6.12-.99l.73,2.55c-1.42.58-3.88,1.27-7.4,1.27-6.76,0-10.87-4.07-10.87-10.02s3.97-10.76,10.41-10.76c7.21,0,9.08,5.71,9.08,9.37,0,.74-.04,1.31-.13,1.72l-15.48-.04Zm11.73-2.59c.04-2.26-1.05-5.88-5.53-5.88-4.11,0-5.84,3.37-6.16,5.88h11.69Z"/>
        </g>
      </g>
    </g>
  </g>
</svg>